# xmcd
#
# Track frame offsets:
#	150
#	17774
#	37477
#	49866
#	61422
#	74265
#	85871
#	96979
#	111191
#	125831
#	142922
#	161947
#	172584
#	189804
#	206328
#	221190
#	236495
#	251756
#	267948
#	281079
#	298946
#	312483
#	324073
#	336448
#
# Disc length: 4738 seconds
# Revision: 1
# Processed by: cddbd v1.5.2PL0 Copyright (c) Steve Scherf et al.
# Submitted via: dBpowerAMP V12.0
#
DISCID=76128018
DTITLE=Various Artist - The Best Country Album Ever
DYEAR=2006
DGENRE=Country
TTITLE0=Twain, Shania - Man! I Feel Like a Woman
TTITLE1=Mavericks, The - Dance the Night Away
TTITLE2=Parton, Dolly - 9 to 5
TTITLE3=Cash, Johnny - Ring of Fire
TTITLE4=Anderson, Lynn - Rose Garden
TTITLE5=Orbison, Roy - Dream Baby (How Long Must I Dream)
TTITLE6=Miller, Roger - King of the Road
TTITLE7=Campbell, Glen - Rhinestone Cowboy
TTITLE8=Bellamy Brothers - Let Your Love Flow
TTITLE9=McCall, C W - Convoy
TTITLE10=Soggy Bottom Boys, The - I Am a Man of Constant Sorrow
TTITLE11=Van Dyke, Leroy - Walk on by
TTITLE12=Jackson, Alan - It's Five O'Clock Somewhere
TTITLE13=White, Tony Joe - Polk Salad Annie
TTITLE14=Asleep at the Wheel - Lay Down Sally
TTITLE15=McGraw, Tim - I Like It, I Love It
TTITLE16=Cyrus, Billy Ray - Achy Breaky Heart
TTITLE17=Charlie Daniels Band, The - The Devil Went Down to Georgia
TTITLE18=Flying Burrito Brothers, The - Six Days on the Road
TTITLE19=Green, Pat - Wave on Wave
TTITLE20=Rogers, Kenny - Ruby, Don't Take Your Love to Town
TTITLE21=Cline, Patsy - Walkin' After Midnight
TTITLE22=Reeves, Jim - I Love You Because
TTITLE23=Griffith, Nanci - From a Distance
EXTD=
EXTT0=
EXTT1=
EXTT2=
EXTT3=
EXTT4=
EXTT5=
EXTT6=
EXTT7=
EXTT8=
EXTT9=
EXTT10=
EXTT11=
EXTT12=
EXTT13=
EXTT14=
EXTT15=
EXTT16=
EXTT17=
EXTT18=
EXTT19=
EXTT20=
EXTT21=
EXTT22=
EXTT23=
PLAYORDER=
